<svg id="Grupo_609" data-name="Grupo 609" xmlns="http://www.w3.org/2000/svg" width="120" height="120" viewBox="0 0 120 120">
  <circle id="Elipse_4" data-name="Elipse 4" cx="60" cy="60" r="60" fill="#fff"/>
  <g id="mail-1" transform="translate(33.647 30)">
    <path id="Trazado_1066" data-name="Trazado 1066" d="M60.787,25a1.552,1.552,0,0,0-.142-.7,1.424,1.424,0,0,0-.456-1.167l-5.1-4.271V9.912c0-.783-.7-.868-1.424-.868H42.776l-5.7-5a4.015,4.015,0,0,0-5.282.128L26.1,9.044H15.3c-.783,0-1.495.085-1.495.868v8.9L8.734,23.082a1.424,1.424,0,0,0-.4.655,1.424,1.424,0,0,0-.185,1.253s0,.085,0,.142V57.423c0,2.577,1.509,5.7,4.086,5.7H56.743c2.577,0,4.043-3.146,4.043-5.7Zm-3.175-.4-2.52,2.107V22.441ZM33.693,6.225a1.167,1.167,0,0,1,1.623.142l3.033,2.677H30.66ZM52.2,11.92V29.1L35.473,43.128a1.224,1.224,0,0,1-1.666,0L16.722,28.805V11.891ZM13.76,22.555v3.887l-2.335-1.936Zm-2.848,5.2,15.761,13.2L10.956,54.12ZM56.743,60.3H12.237c-.868,0-1.139-1.253-1.182-2.15L28.966,42.943,32,45.392a3.987,3.987,0,0,0,2.634.954,4.186,4.186,0,0,0,2.648-1.011l2.848-2.406,17.84,15.248C57.9,59.074,57.6,60.3,56.743,60.3Zm1.2-6.094-15.661-13.1,15.661-13.1Z" transform="translate(-8.081 -3.118)" fill="#37bbed"/>
    <path id="Path_1067" data-name="Path 1067" d="M22.326.635H-.682A1.318,1.318,0,0,1-2-.682,1.318,1.318,0,0,1-.682-2H22.326A1.318,1.318,0,0,1,23.643-.682,1.318,1.318,0,0,1,22.326.635Z" transform="translate(15.531 17.044)" fill="#37bbed"/>
    <path id="Path_1068" data-name="Path 1068" d="M22.326.635H-.682A1.318,1.318,0,0,1-2-.682,1.318,1.318,0,0,1-.682-2H22.326A1.318,1.318,0,0,1,23.643-.682,1.318,1.318,0,0,1,22.326.635Z" transform="translate(15.531 23.01)" fill="#37bbed"/>
    <path id="Path_1070" data-name="Path 1070" d="M-.1.635H-.682A1.318,1.318,0,0,1-2-.682,1.318,1.318,0,0,1-.682-2H-.1A1.318,1.318,0,0,1,1.219-.682,1.318,1.318,0,0,1-.1.635Z" transform="translate(33.427 28.975)" fill="#37bbed"/>
    <path id="Path_1069" data-name="Path 1069" d="M12.117.635H-.682A1.318,1.318,0,0,1-2-.682,1.318,1.318,0,0,1-.682-2h12.8A1.318,1.318,0,0,1,13.435-.682,1.318,1.318,0,0,1,12.117.635Z" transform="translate(15.531 28.975)" fill="#37bbed"/>
  </g>
</svg>
