<svg xmlns="http://www.w3.org/2000/svg" width="254.633" height="57.5" viewBox="0 0 254.633 57.5">
  <g id="Grupo_724" data-name="Grupo 724" transform="translate(0 -28.75)">
    <path id="Trazado_1057" data-name="Trazado 1057" d="M5.6-16.585H.952v-3.089H13.616v3.089H8.965v12.14H5.6Zm16.835,4.308a2.8,2.8,0,0,0,1.911-.587,1.985,1.985,0,0,0,.666-1.566v-.044a1.94,1.94,0,0,0-.7-1.632,3.093,3.093,0,0,0-1.943-.544H19.031v4.373Zm-6.769-7.4h6.987A6.042,6.042,0,0,1,27.11-18.13a4.7,4.7,0,0,1,1.31,3.481v.044a4.764,4.764,0,0,1-.906,3.013,5.249,5.249,0,0,1-2.369,1.708l3.734,5.439h-3.93L21.673-9.319H19.031v4.874H15.669Zm15.263,0H42.438v2.981H34.25V-13.6h7.206v2.981H34.25v3.2h8.3v2.981H30.931Zm14.105,0h3.1L55.3-10.3v-9.377h3.319v15.23h-2.86l-7.4-9.682v9.682H45.037Zm16.726,0H73.269v2.981H65.081V-13.6h7.205v2.981H65.081v3.2h8.3v2.981H61.762ZM81.326-4.228a10.155,10.155,0,0,1-3.428-.6,9.079,9.079,0,0,1-3.057-1.838l1.987-2.371a9.983,9.983,0,0,0,2.151,1.349,5.77,5.77,0,0,0,2.413.5,2.947,2.947,0,0,0,1.627-.381A1.2,1.2,0,0,0,83.6-8.622v-.044a1.314,1.314,0,0,0-.12-.577,1.213,1.213,0,0,0-.46-.468,4.826,4.826,0,0,0-.941-.435q-.6-.218-1.565-.457a19.174,19.174,0,0,1-2.1-.631,5.932,5.932,0,0,1-1.6-.859,3.48,3.48,0,0,1-1.018-1.273,4.4,4.4,0,0,1-.361-1.893V-15.3a4.4,4.4,0,0,1,.39-1.882,4.285,4.285,0,0,1,1.1-1.447,4.924,4.924,0,0,1,1.684-.936,6.79,6.79,0,0,1,2.158-.326,9.17,9.17,0,0,1,3.09.5,8.966,8.966,0,0,1,2.587,1.436l-1.747,2.524a11.086,11.086,0,0,0-2.009-1.1,5.15,5.15,0,0,0-1.965-.4,2.384,2.384,0,0,0-1.474.381,1.155,1.155,0,0,0-.491.946v.044a1.367,1.367,0,0,0,.142.642,1.289,1.289,0,0,0,.514.49,4.859,4.859,0,0,0,1.018.413q.646.2,1.631.457a15.661,15.661,0,0,1,2.069.685,5.779,5.779,0,0,1,1.533.914,3.486,3.486,0,0,1,.941,1.251,4.231,4.231,0,0,1,.317,1.719v.044A4.7,4.7,0,0,1,86.5-6.936a4.131,4.131,0,0,1-1.15,1.479,5.187,5.187,0,0,1-1.76.914A7.671,7.671,0,0,1,81.326-4.228Zm22.8-6.592-2.031-4.939L100.06-10.82Zm-3.537-8.964h3.1l6.55,15.339H106.72l-1.4-3.416H98.86l-1.4,3.416H94.034Zm18.254,7.506a2.8,2.8,0,0,0,1.911-.587,1.985,1.985,0,0,0,.666-1.566v-.044a1.94,1.94,0,0,0-.7-1.632,3.093,3.093,0,0,0-1.943-.544h-3.341v4.373Zm-6.769-7.4h6.987a6.042,6.042,0,0,1,4.454,1.545,4.7,4.7,0,0,1,1.31,3.481v.044a4.764,4.764,0,0,1-.906,3.013,5.249,5.249,0,0,1-2.369,1.708l3.734,5.439h-3.93l-3.275-4.874h-2.642v4.874H112.07ZM134.691-4.184a8.744,8.744,0,0,1-3.264-.587A7.53,7.53,0,0,1,128.893-6.4a7.372,7.372,0,0,1-1.649-2.48,8.17,8.17,0,0,1-.59-3.133v-.044a7.791,7.791,0,0,1,.6-3.057,7.825,7.825,0,0,1,1.67-2.5,7.842,7.842,0,0,1,2.533-1.7,8.142,8.142,0,0,1,3.21-.62,11.3,11.3,0,0,1,1.867.141,8.923,8.923,0,0,1,1.561.4,7.281,7.281,0,0,1,1.354.653,10.1,10.1,0,0,1,1.223.892L138.555-15.3a8.531,8.531,0,0,0-.873-.653,5.7,5.7,0,0,0-.906-.479,5.345,5.345,0,0,0-1.015-.3,6.156,6.156,0,0,0-1.2-.109,3.918,3.918,0,0,0-1.714.382,4.629,4.629,0,0,0-1.4,1.025,4.7,4.7,0,0,0-.939,1.5,4.993,4.993,0,0,0-.338,1.843v.044a5.35,5.35,0,0,0,.338,1.93,4.582,4.582,0,0,0,.961,1.537,4.371,4.371,0,0,0,1.463,1.014,4.7,4.7,0,0,0,1.867.36,5.306,5.306,0,0,0,3.166-.92V-10.32h-3.384v-2.894h6.638V-6.6a11.2,11.2,0,0,1-2.806,1.708A9.259,9.259,0,0,1,134.691-4.184Zm9.236-15.491h11.507v2.981h-8.188V-13.6h7.206v2.981h-7.206v3.2h8.3v2.981H143.927Zm14.105,0h3.1l7.162,9.377v-9.377h3.319v15.23h-2.86l-7.4-9.682v9.682h-3.319Zm20.285,3.089h-4.651v-3.089H186.33v3.089h-4.651v12.14h-3.363Zm10.219-3.089H191.9v15.23h-3.363Zm6.66,0h3.1l7.162,9.377v-9.377h3.319v15.23h-2.86l-7.4-9.682v9.682h-3.319Zm24.193,12.4a4.608,4.608,0,0,0,1.856-.37A4.243,4.243,0,0,0,222.7-8.666a4.817,4.817,0,0,0,.939-1.512,4.972,4.972,0,0,0,.338-1.838v-.044a5.057,5.057,0,0,0-.338-1.849,4.6,4.6,0,0,0-.961-1.523,4.617,4.617,0,0,0-1.474-1.033,4.5,4.5,0,0,0-1.856-.381,4.586,4.586,0,0,0-1.867.37,4.269,4.269,0,0,0-1.441,1.023,4.817,4.817,0,0,0-.939,1.512,4.972,4.972,0,0,0-.338,1.838v.044a5.057,5.057,0,0,0,.338,1.849,4.6,4.6,0,0,0,.961,1.523,4.652,4.652,0,0,0,1.463,1.033A4.473,4.473,0,0,0,219.388-7.274Zm-.044,3.089a8.359,8.359,0,0,1-3.253-.62,8.093,8.093,0,0,1-2.566-1.675,7.494,7.494,0,0,1-1.681-2.48,7.791,7.791,0,0,1-.6-3.057v-.044a7.67,7.67,0,0,1,.611-3.057,7.886,7.886,0,0,1,1.692-2.5,7.88,7.88,0,0,1,2.577-1.7,8.441,8.441,0,0,1,3.264-.62,8.36,8.36,0,0,1,3.253.62,8.093,8.093,0,0,1,2.566,1.675,7.494,7.494,0,0,1,1.681,2.48,7.791,7.791,0,0,1,.6,3.057v.044A7.67,7.67,0,0,1,226.877-9a7.886,7.886,0,0,1-1.692,2.5,7.879,7.879,0,0,1-2.577,1.7A8.441,8.441,0,0,1,219.344-4.184Zm16.07-.044a10.155,10.155,0,0,1-3.428-.6,9.079,9.079,0,0,1-3.057-1.838l1.987-2.371a9.982,9.982,0,0,0,2.151,1.349,5.77,5.77,0,0,0,2.413.5,2.947,2.947,0,0,0,1.627-.381,1.2,1.2,0,0,0,.579-1.055v-.044a1.314,1.314,0,0,0-.12-.577,1.213,1.213,0,0,0-.46-.468,4.827,4.827,0,0,0-.941-.435q-.6-.218-1.565-.457a19.172,19.172,0,0,1-2.1-.631,5.932,5.932,0,0,1-1.6-.859,3.48,3.48,0,0,1-1.018-1.273,4.4,4.4,0,0,1-.361-1.893V-15.3a4.4,4.4,0,0,1,.39-1.882,4.285,4.285,0,0,1,1.1-1.447,4.924,4.924,0,0,1,1.684-.936,6.79,6.79,0,0,1,2.158-.326,9.17,9.17,0,0,1,3.09.5,8.965,8.965,0,0,1,2.587,1.436l-1.747,2.524a11.086,11.086,0,0,0-2.009-1.1,5.15,5.15,0,0,0-1.965-.4,2.384,2.384,0,0,0-1.474.381,1.155,1.155,0,0,0-.491.946v.044a1.367,1.367,0,0,0,.142.642,1.289,1.289,0,0,0,.514.49,4.858,4.858,0,0,0,1.018.413q.646.2,1.631.457a15.66,15.66,0,0,1,2.069.685,5.779,5.779,0,0,1,1.533.914,3.486,3.486,0,0,1,.941,1.251A4.231,4.231,0,0,1,241-8.992v.044a4.7,4.7,0,0,1-.412,2.012,4.131,4.131,0,0,1-1.15,1.479,5.187,5.187,0,0,1-1.76.914A7.671,7.671,0,0,1,235.415-4.228Z" transform="translate(13.629 51.844)" fill="#fff"/>
    <path id="Trazado_1058" data-name="Trazado 1058" d="M14.65-6.575a12.471,12.471,0,0,1-4.907-.957,12.07,12.07,0,0,1-3.912-2.615,11.9,11.9,0,0,1-2.573-3.915,12.568,12.568,0,0,1-.926-4.821v-.068a12.44,12.44,0,0,1,.926-4.8,12.346,12.346,0,0,1,2.573-3.932,11.932,11.932,0,0,1,3.946-2.667,12.884,12.884,0,0,1,5.078-.974,15.94,15.94,0,0,1,3.071.274,12.837,12.837,0,0,1,2.522.752,10.945,10.945,0,0,1,2.093,1.162,14.132,14.132,0,0,1,1.784,1.5l-3.363,3.863A12.712,12.712,0,0,0,18.1-25.755a7.319,7.319,0,0,0-3.277-.718,6.713,6.713,0,0,0-2.8.581,6.617,6.617,0,0,0-2.213,1.607,7.483,7.483,0,0,0-1.441,2.376,8.043,8.043,0,0,0-.515,2.889v.068a8.182,8.182,0,0,0,.515,2.906,7.607,7.607,0,0,0,1.424,2.393,6.637,6.637,0,0,0,2.2,1.624,6.631,6.631,0,0,0,2.831.6,7.381,7.381,0,0,0,3.483-.752,13.519,13.519,0,0,0,2.831-2.051L24.5-10.849a17.4,17.4,0,0,1-1.921,1.778A11.431,11.431,0,0,1,20.4-7.72a11.323,11.323,0,0,1-2.591.855A15.662,15.662,0,0,1,14.65-6.575ZM42.1-17l-3.191-7.761L35.718-17ZM36.541-31.089h4.872l10.294,24.1H46.183l-2.2-5.368H33.83l-2.2,5.368H26.247Zm29.1,11.8a4.4,4.4,0,0,0,3-.923,3.12,3.12,0,0,0,1.047-2.462v-.068a3.049,3.049,0,0,0-1.1-2.564,4.861,4.861,0,0,0-3.054-.855h-5.25v6.872ZM55-30.918h10.98q4.563,0,7,2.427a7.378,7.378,0,0,1,2.059,5.47v.068a7.486,7.486,0,0,1-1.424,4.735,8.249,8.249,0,0,1-3.723,2.684L75.76-6.985H69.583l-5.147-7.658H60.285v7.658H55ZM90.96-6.575A13.74,13.74,0,0,1,85.83-7.5a11.833,11.833,0,0,1-3.98-2.564,11.585,11.585,0,0,1-2.591-3.9,12.839,12.839,0,0,1-.926-4.923v-.068a12.243,12.243,0,0,1,.944-4.8A12.3,12.3,0,0,1,81.9-27.687a12.322,12.322,0,0,1,3.98-2.667,12.794,12.794,0,0,1,5.044-.974,17.756,17.756,0,0,1,2.934.222,14.021,14.021,0,0,1,2.453.632,11.441,11.441,0,0,1,2.127,1.026,15.863,15.863,0,0,1,1.921,1.4l-3.328,4a13.406,13.406,0,0,0-1.372-1.026,8.962,8.962,0,0,0-1.424-.752,8.4,8.4,0,0,0-1.6-.479,9.673,9.673,0,0,0-1.887-.171,6.156,6.156,0,0,0-2.693.6,7.274,7.274,0,0,0-2.2,1.611A7.385,7.385,0,0,0,84.389-21.9a7.846,7.846,0,0,0-.532,2.9v.068a8.407,8.407,0,0,0,.532,3.033,7.2,7.2,0,0,0,1.51,2.416,6.869,6.869,0,0,0,2.3,1.593,7.381,7.381,0,0,0,2.934.565,8.337,8.337,0,0,0,4.975-1.446v-3.443H90.788v-4.547h10.431V-10.37A17.6,17.6,0,0,1,96.81-7.686,14.55,14.55,0,0,1,90.96-6.575ZM119.679-17l-3.191-7.761L113.3-17ZM114.12-31.089h4.872l10.294,24.1h-5.524l-2.2-5.368H111.41l-2.2,5.368h-5.387ZM141.158-6.643a15.958,15.958,0,0,1-5.387-.94,14.268,14.268,0,0,1-4.8-2.889L134.09-14.2a15.686,15.686,0,0,0,3.38,2.12,9.066,9.066,0,0,0,3.791.786,4.63,4.63,0,0,0,2.556-.6,1.882,1.882,0,0,0,.909-1.658v-.068a2.065,2.065,0,0,0-.189-.906,1.906,1.906,0,0,0-.722-.735,7.584,7.584,0,0,0-1.479-.684q-.946-.342-2.46-.718a30.129,30.129,0,0,1-3.3-.991A9.322,9.322,0,0,1,134.061-19a5.469,5.469,0,0,1-1.6-2,6.921,6.921,0,0,1-.568-2.974v-.068A6.917,6.917,0,0,1,132.507-27a6.734,6.734,0,0,1,1.721-2.274,7.737,7.737,0,0,1,2.646-1.47,10.67,10.67,0,0,1,3.391-.513,14.41,14.41,0,0,1,4.855.786,14.089,14.089,0,0,1,4.066,2.256l-2.745,3.966a17.42,17.42,0,0,0-3.157-1.727,8.092,8.092,0,0,0-3.088-.632,3.746,3.746,0,0,0-2.316.6,1.815,1.815,0,0,0-.772,1.487v.068a2.148,2.148,0,0,0,.224,1.009,2.025,2.025,0,0,0,.808.769,7.635,7.635,0,0,0,1.6.65q1.015.308,2.563.718a24.609,24.609,0,0,1,3.251,1.077,9.081,9.081,0,0,1,2.408,1.436,5.478,5.478,0,0,1,1.479,1.966,6.648,6.648,0,0,1,.5,2.7v.068a7.382,7.382,0,0,1-.648,3.162,6.491,6.491,0,0,1-1.807,2.325,8.15,8.15,0,0,1-2.766,1.436A12.054,12.054,0,0,1,141.158-6.643Z" transform="translate(13.325 89.35)" fill="#fff"/>
    <path id="Trazado_1059" data-name="Trazado 1059" d="M0,0H3.119V57.5H0Z" transform="translate(0 28.75)" fill="#fff"/>
  </g>
</svg>
